<svg xmlns="http://www.w3.org/2000/svg" width="1600" height="520" viewBox="0 0 1600 520"><rect x="0" y="0" width="1600" height="520" fill="#ffffff" /><defs><marker id="arrow" markerWidth="10" markerHeight="10" refX="8" refY="3" orient="auto" markerUnits="strokeWidth"><path d="M0,0 L0,6 L9,3 z" fill="#4b5563"/></marker></defs><text x="800.0" y="32" text-anchor="middle" font-family="Arial, sans-serif" font-size="24" font-weight="700" fill="#1f2937">DFD Level 2 - Prediction Process</text><circle cx="80" cy="250" r="18" fill="#fff7ed" stroke="#b45309" stroke-width="2"/><line x1="80" y1="268" x2="80" y2="308" stroke="#b45309" stroke-width="2"/><line x1="58" y1="280" x2="102" y2="280" stroke="#b45309" stroke-width="2"/><line x1="80" y1="308" x2="60" y2="338" stroke="#b45309" stroke-width="2"/><line x1="80" y1="308" x2="100" y2="338" stroke="#b45309" stroke-width="2"/><text x="80" y="362" text-anchor="middle" font-family="Arial, sans-serif" font-size="16" fill="#78350f">Patient</text><rect x="170" y="210" width="160" height="70" rx="14" ry="14" fill="#dcfce7" stroke="#16a34a" stroke-width="2"/><text x="250.0" y="240.0" text-anchor="middle" font-family="Arial, sans-serif" font-size="16" fill="#111827">Enter Health</text><text x="250.0" y="260.0" text-anchor="middle" font-family="Arial, sans-serif" font-size="16" fill="#111827">Details</text><rect x="370" y="210" width="160" height="70" rx="14" ry="14" fill="#dcfce7" stroke="#16a34a" stroke-width="2"/><text x="450.0" y="240.0" text-anchor="middle" font-family="Arial, sans-serif" font-size="16" fill="#111827">Validate</text><text x="450.0" y="260.0" text-anchor="middle" font-family="Arial, sans-serif" font-size="16" fill="#111827">Input</text><rect x="570" y="210" width="160" height="70" rx="14" ry="14" fill="#dcfce7" stroke="#16a34a" stroke-width="2"/><text x="650.0" y="240.0" text-anchor="middle" font-family="Arial, sans-serif" font-size="16" fill="#111827">Scale Input</text><text x="650.0" y="260.0" text-anchor="middle" font-family="Arial, sans-serif" font-size="16" fill="#111827">Data</text><rect x="770" y="210" width="160" height="70" rx="14" ry="14" fill="#dcfce7" stroke="#16a34a" stroke-width="2"/><text x="850.0" y="240.0" text-anchor="middle" font-family="Arial, sans-serif" font-size="16" fill="#111827">Run ML</text><text x="850.0" y="260.0" text-anchor="middle" font-family="Arial, sans-serif" font-size="16" fill="#111827">Prediction</text><rect x="970" y="210" width="160" height="70" rx="14" ry="14" fill="#dcfce7" stroke="#16a34a" stroke-width="2"/><text x="1050.0" y="240.0" text-anchor="middle" font-family="Arial, sans-serif" font-size="16" fill="#111827">Generate Risk</text><text x="1050.0" y="260.0" text-anchor="middle" font-family="Arial, sans-serif" font-size="16" fill="#111827">Result</text><polygon points="1245.0,190 1320,245.0 1245.0,300 1170,245.0" fill="#fef3c7" stroke="#d97706" stroke-width="2"/><text x="1245.0" y="250.0" text-anchor="middle" font-family="Arial, sans-serif" font-size="15" fill="#111827">High Risk?</text><rect x="1360" y="120" width="170" height="70" rx="14" ry="14" fill="#dbeafe" stroke="#2563eb" stroke-width="2"/><text x="1445.0" y="150.0" text-anchor="middle" font-family="Arial, sans-serif" font-size="16" fill="#111827">Fetch Doctor</text><text x="1445.0" y="170.0" text-anchor="middle" font-family="Arial, sans-serif" font-size="16" fill="#111827">Suggestions</text><ellipse cx="1445.0" cy="234" rx="85.0" ry="14" fill="#fee2e2" stroke="#dc2626" stroke-width="2"/><rect x="1360" y="234" width="170" height="72" fill="#fee2e2" stroke="#dc2626" stroke-width="2"/><ellipse cx="1445.0" cy="306" rx="85.0" ry="14" fill="#fee2e2" stroke="#dc2626" stroke-width="2"/><text x="1445.0" y="275.0" text-anchor="middle" font-family="Arial, sans-serif" font-size="16" fill="#111827">Doctors</text><rect x="1360" y="360" width="170" height="70" rx="14" ry="14" fill="#dbeafe" stroke="#2563eb" stroke-width="2"/><text x="1445.0" y="390.0" text-anchor="middle" font-family="Arial, sans-serif" font-size="16" fill="#111827">Show Low Risk</text><text x="1445.0" y="410.0" text-anchor="middle" font-family="Arial, sans-serif" font-size="16" fill="#111827">Advice</text><ellipse cx="1050.0" cy="374" rx="80.0" ry="14" fill="#fee2e2" stroke="#dc2626" stroke-width="2"/><rect x="970" y="374" width="160" height="72" fill="#fee2e2" stroke="#dc2626" stroke-width="2"/><ellipse cx="1050.0" cy="446" rx="80.0" ry="14" fill="#fee2e2" stroke="#dc2626" stroke-width="2"/><text x="1050.0" y="415.0" text-anchor="middle" font-family="Arial, sans-serif" font-size="16" fill="#111827">Predictions</text><rect x="1170" y="360" width="160" height="70" rx="14" ry="14" fill="#dcfce7" stroke="#16a34a" stroke-width="2"/><text x="1250.0" y="390.0" text-anchor="middle" font-family="Arial, sans-serif" font-size="16" fill="#111827">Return Result</text><text x="1250.0" y="410.0" text-anchor="middle" font-family="Arial, sans-serif" font-size="16" fill="#111827">to Patient</text><line x1="98" y1="250" x2="170" y2="245" stroke="#0f766e" stroke-width="2" marker-end="url(#arrow)"/><line x1="330" y1="245" x2="450" y2="245" stroke="#16a34a" stroke-width="2" marker-end="url(#arrow)"/><line x1="530" y1="245" x2="650" y2="245" stroke="#16a34a" stroke-width="2" marker-end="url(#arrow)"/><line x1="730" y1="245" x2="850" y2="245" stroke="#16a34a" stroke-width="2" marker-end="url(#arrow)"/><line x1="930" y1="245" x2="1050" y2="245" stroke="#16a34a" stroke-width="2" marker-end="url(#arrow)"/><line x1="1130" y1="245" x2="1170" y2="245" stroke="#16a34a" stroke-width="2" marker-end="url(#arrow)"/><line x1="1245" y1="190" x2="1445" y2="190" stroke="#2563eb" stroke-width="2" marker-end="url(#arrow)"/><text x="1320" y="180" text-anchor="middle" font-family="Arial, sans-serif" font-size="14" fill="#2563eb">Yes</text><line x1="1445" y1="190" x2="1445" y2="220" stroke="#2563eb" stroke-width="2" marker-end="url(#arrow)"/><line x1="1245" y1="300" x2="1445" y2="395" stroke="#2563eb" stroke-width="2" marker-end="url(#arrow)"/><text x="1320" y="340" text-anchor="middle" font-family="Arial, sans-serif" font-size="14" fill="#2563eb">No</text><line x1="1050" y1="280" x2="1050" y2="360" stroke="#dc2626" stroke-width="2" marker-end="url(#arrow)"/><line x1="1445" y1="320" x2="1250" y2="360" stroke="#2563eb" stroke-width="2" marker-end="url(#arrow)"/><line x1="1360" y1="395" x2="1330" y2="395" stroke="#2563eb" stroke-width="2" marker-end="url(#arrow)"/><line x1="1170" y1="395" x2="100" y2="290" stroke="#0f766e" stroke-width="2" marker-end="url(#arrow)"/></svg>