<svg xmlns="http://www.w3.org/2000/svg" width="1100" height="620" viewBox="0 0 1100 620"><rect x="0" y="0" width="1100" height="620" fill="#ffffff" /><defs><marker id="arrow" markerWidth="10" markerHeight="10" refX="8" refY="3" orient="auto" markerUnits="strokeWidth"><path d="M0,0 L0,6 L9,3 z" fill="#4b5563"/></marker></defs><text x="550.0" y="32" text-anchor="middle" font-family="Arial, sans-serif" font-size="24" font-weight="700" fill="#1f2937">DFD Level 0</text><circle cx="120" cy="180" r="18" fill="#fff7ed" stroke="#b45309" stroke-width="2"/><line x1="120" y1="198" x2="120" y2="238" stroke="#b45309" stroke-width="2"/><line x1="98" y1="210" x2="142" y2="210" stroke="#b45309" stroke-width="2"/><line x1="120" y1="238" x2="100" y2="268" stroke="#b45309" stroke-width="2"/><line x1="120" y1="238" x2="140" y2="268" stroke="#b45309" stroke-width="2"/><text x="120" y="292" text-anchor="middle" font-family="Arial, sans-serif" font-size="16" fill="#78350f">Patient</text><circle cx="120" cy="340" r="18" fill="#fff7ed" stroke="#b45309" stroke-width="2"/><line x1="120" y1="358" x2="120" y2="398" stroke="#b45309" stroke-width="2"/><line x1="98" y1="370" x2="142" y2="370" stroke="#b45309" stroke-width="2"/><line x1="120" y1="398" x2="100" y2="428" stroke="#b45309" stroke-width="2"/><line x1="120" y1="398" x2="140" y2="428" stroke="#b45309" stroke-width="2"/><text x="120" y="452" text-anchor="middle" font-family="Arial, sans-serif" font-size="16" fill="#78350f">Doctor</text><circle cx="120" cy="500" r="18" fill="#fff7ed" stroke="#b45309" stroke-width="2"/><line x1="120" y1="518" x2="120" y2="558" stroke="#b45309" stroke-width="2"/><line x1="98" y1="530" x2="142" y2="530" stroke="#b45309" stroke-width="2"/><line x1="120" y1="558" x2="100" y2="588" stroke="#b45309" stroke-width="2"/><line x1="120" y1="558" x2="140" y2="588" stroke="#b45309" stroke-width="2"/><text x="120" y="612" text-anchor="middle" font-family="Arial, sans-serif" font-size="16" fill="#78350f">Admin</text><rect x="380" y="240" width="320" height="120" rx="20" ry="20" fill="#ecfeff" stroke="#0891b2" stroke-width="2"/><text x="540.0" y="305.0" text-anchor="middle" font-family="Arial, sans-serif" font-size="22" fill="#111827">CardioGuard System</text><rect x="820" y="260" width="180" height="90" rx="14" ry="14" fill="#f3e8ff" stroke="#7c3aed" stroke-width="2"/><text x="910.0" y="310.0" text-anchor="middle" font-family="Arial, sans-serif" font-size="16" fill="#111827">Email Service</text><line x1="140" y1="180" x2="380" y2="270" stroke="#0f766e" stroke-width="2" marker-end="url(#arrow)"/><line x1="140" y1="340" x2="380" y2="300" stroke="#0f766e" stroke-width="2" marker-end="url(#arrow)"/><line x1="140" y1="500" x2="380" y2="330" stroke="#0f766e" stroke-width="2" marker-end="url(#arrow)"/><line x1="700" y1="285" x2="820" y2="285" stroke="#7c3aed" stroke-width="2" marker-end="url(#arrow)"/><line x1="820" y1="325" x2="700" y2="325" stroke="#7c3aed" stroke-width="2" marker-end="url(#arrow)"/></svg>