<svg xmlns="http://www.w3.org/2000/svg" width="1500" height="900" viewBox="0 0 1500 900"><rect x="0" y="0" width="1500" height="900" fill="#ffffff" /><defs><marker id="arrow" markerWidth="10" markerHeight="10" refX="8" refY="3" orient="auto" markerUnits="strokeWidth"><path d="M0,0 L0,6 L9,3 z" fill="#4b5563"/></marker></defs><text x="750.0" y="32" text-anchor="middle" font-family="Arial, sans-serif" font-size="24" font-weight="700" fill="#1f2937">DFD Level 1</text><circle cx="100" cy="190" r="18" fill="#fff7ed" stroke="#b45309" stroke-width="2"/><line x1="100" y1="208" x2="100" y2="248" stroke="#b45309" stroke-width="2"/><line x1="78" y1="220" x2="122" y2="220" stroke="#b45309" stroke-width="2"/><line x1="100" y1="248" x2="80" y2="278" stroke="#b45309" stroke-width="2"/><line x1="100" y1="248" x2="120" y2="278" stroke="#b45309" stroke-width="2"/><text x="100" y="302" text-anchor="middle" font-family="Arial, sans-serif" font-size="16" fill="#78350f">Patient</text><circle cx="100" cy="430" r="18" fill="#fff7ed" stroke="#b45309" stroke-width="2"/><line x1="100" y1="448" x2="100" y2="488" stroke="#b45309" stroke-width="2"/><line x1="78" y1="460" x2="122" y2="460" stroke="#b45309" stroke-width="2"/><line x1="100" y1="488" x2="80" y2="518" stroke="#b45309" stroke-width="2"/><line x1="100" y1="488" x2="120" y2="518" stroke="#b45309" stroke-width="2"/><text x="100" y="542" text-anchor="middle" font-family="Arial, sans-serif" font-size="16" fill="#78350f">Doctor</text><circle cx="100" cy="670" r="18" fill="#fff7ed" stroke="#b45309" stroke-width="2"/><line x1="100" y1="688" x2="100" y2="728" stroke="#b45309" stroke-width="2"/><line x1="78" y1="700" x2="122" y2="700" stroke="#b45309" stroke-width="2"/><line x1="100" y1="728" x2="80" y2="758" stroke="#b45309" stroke-width="2"/><line x1="100" y1="728" x2="120" y2="758" stroke="#b45309" stroke-width="2"/><text x="100" y="782" text-anchor="middle" font-family="Arial, sans-serif" font-size="16" fill="#78350f">Admin</text><rect x="260" y="100" width="240" height="80" rx="14" ry="14" fill="#dbeafe" stroke="#2563eb" stroke-width="2"/><text x="380.0" y="135.0" text-anchor="middle" font-family="Arial, sans-serif" font-size="16" fill="#111827">1.0 Registration</text><text x="380.0" y="155.0" text-anchor="middle" font-family="Arial, sans-serif" font-size="16" fill="#111827">and Login</text><rect x="260" y="220" width="240" height="80" rx="14" ry="14" fill="#dcfce7" stroke="#16a34a" stroke-width="2"/><text x="380.0" y="255.0" text-anchor="middle" font-family="Arial, sans-serif" font-size="16" fill="#111827">2.0 Prediction</text><text x="380.0" y="275.0" text-anchor="middle" font-family="Arial, sans-serif" font-size="16" fill="#111827">Management</text><rect x="260" y="340" width="240" height="80" rx="14" ry="14" fill="#dcfce7" stroke="#16a34a" stroke-width="2"/><text x="380.0" y="375.0" text-anchor="middle" font-family="Arial, sans-serif" font-size="16" fill="#111827">3.0 History</text><text x="380.0" y="395.0" text-anchor="middle" font-family="Arial, sans-serif" font-size="16" fill="#111827">and Report</text><rect x="260" y="460" width="240" height="80" rx="14" ry="14" fill="#dbeafe" stroke="#2563eb" stroke-width="2"/><text x="380.0" y="495.0" text-anchor="middle" font-family="Arial, sans-serif" font-size="16" fill="#111827">4.0 Doctor</text><text x="380.0" y="515.0" text-anchor="middle" font-family="Arial, sans-serif" font-size="16" fill="#111827">Services</text><rect x="260" y="580" width="240" height="80" rx="14" ry="14" fill="#dbeafe" stroke="#2563eb" stroke-width="2"/><text x="380.0" y="615.0" text-anchor="middle" font-family="Arial, sans-serif" font-size="16" fill="#111827">5.0 Admin</text><text x="380.0" y="635.0" text-anchor="middle" font-family="Arial, sans-serif" font-size="16" fill="#111827">Management</text><rect x="260" y="700" width="240" height="80" rx="14" ry="14" fill="#fef3c7" stroke="#d97706" stroke-width="2"/><text x="380.0" y="745.0" text-anchor="middle" font-family="Arial, sans-serif" font-size="16" fill="#111827">6.0 Feedback</text><ellipse cx="745.0" cy="84" rx="95.0" ry="14" fill="#fee2e2" stroke="#dc2626" stroke-width="2"/><rect x="650" y="84" width="190" height="67" fill="#fee2e2" stroke="#dc2626" stroke-width="2"/><ellipse cx="745.0" cy="151" rx="95.0" ry="14" fill="#fee2e2" stroke="#dc2626" stroke-width="2"/><text x="745.0" y="122.5" text-anchor="middle" font-family="Arial, sans-serif" font-size="16" fill="#111827">Patients</text><ellipse cx="745.0" cy="204" rx="95.0" ry="14" fill="#fee2e2" stroke="#dc2626" stroke-width="2"/><rect x="650" y="204" width="190" height="67" fill="#fee2e2" stroke="#dc2626" stroke-width="2"/><ellipse cx="745.0" cy="271" rx="95.0" ry="14" fill="#fee2e2" stroke="#dc2626" stroke-width="2"/><text x="745.0" y="242.5" text-anchor="middle" font-family="Arial, sans-serif" font-size="16" fill="#111827">Doctors</text><ellipse cx="745.0" cy="324" rx="95.0" ry="14" fill="#fee2e2" stroke="#dc2626" stroke-width="2"/><rect x="650" y="324" width="190" height="67" fill="#fee2e2" stroke="#dc2626" stroke-width="2"/><ellipse cx="745.0" cy="391" rx="95.0" ry="14" fill="#fee2e2" stroke="#dc2626" stroke-width="2"/><text x="745.0" y="362.5" text-anchor="middle" font-family="Arial, sans-serif" font-size="16" fill="#111827">Predictions</text><ellipse cx="745.0" cy="444" rx="95.0" ry="14" fill="#fee2e2" stroke="#dc2626" stroke-width="2"/><rect x="650" y="444" width="190" height="67" fill="#fee2e2" stroke="#dc2626" stroke-width="2"/><ellipse cx="745.0" cy="511" rx="95.0" ry="14" fill="#fee2e2" stroke="#dc2626" stroke-width="2"/><text x="745.0" y="482.5" text-anchor="middle" font-family="Arial, sans-serif" font-size="16" fill="#111827">Admins</text><ellipse cx="745.0" cy="564" rx="95.0" ry="14" fill="#fee2e2" stroke="#dc2626" stroke-width="2"/><rect x="650" y="564" width="190" height="67" fill="#fee2e2" stroke="#dc2626" stroke-width="2"/><ellipse cx="745.0" cy="631" rx="95.0" ry="14" fill="#fee2e2" stroke="#dc2626" stroke-width="2"/><text x="745.0" y="602.5" text-anchor="middle" font-family="Arial, sans-serif" font-size="16" fill="#111827">Feedback</text><rect x="980" y="220" width="220" height="80" rx="14" ry="14" fill="#ede9fe" stroke="#7c3aed" stroke-width="2"/><text x="1090.0" y="265.0" text-anchor="middle" font-family="Arial, sans-serif" font-size="16" fill="#111827">ML Model</text><rect x="980" y="360" width="220" height="80" rx="14" ry="14" fill="#ede9fe" stroke="#7c3aed" stroke-width="2"/><text x="1090.0" y="405.0" text-anchor="middle" font-family="Arial, sans-serif" font-size="16" fill="#111827">PDF / Email Output</text><line x1="120" y1="190" x2="260" y2="140" stroke="#0f766e" stroke-width="2" marker-end="url(#arrow)"/><line x1="120" y1="190" x2="260" y2="260" stroke="#0f766e" stroke-width="2" marker-end="url(#arrow)"/><line x1="120" y1="190" x2="260" y2="380" stroke="#0f766e" stroke-width="2" marker-end="url(#arrow)"/><line x1="120" y1="190" x2="260" y2="740" stroke="#0f766e" stroke-width="2" marker-end="url(#arrow)"/><line x1="120" y1="430" x2="260" y2="500" stroke="#0f766e" stroke-width="2" marker-end="url(#arrow)"/><line x1="120" y1="670" x2="260" y2="620" stroke="#0f766e" stroke-width="2" marker-end="url(#arrow)"/><line x1="500" y1="140" x2="650" y2="118" stroke="#64748b" stroke-width="2" marker-end="url(#arrow)"/><line x1="500" y1="140" x2="650" y2="478" stroke="#64748b" stroke-width="2" marker-end="url(#arrow)"/><line x1="500" y1="260" x2="650" y2="118" stroke="#64748b" stroke-width="2" marker-end="url(#arrow)"/><line x1="500" y1="260" x2="650" y2="238" stroke="#64748b" stroke-width="2" marker-end="url(#arrow)"/><line x1="500" y1="260" x2="650" y2="358" stroke="#64748b" stroke-width="2" marker-end="url(#arrow)"/><line x1="500" y1="380" x2="650" y2="118" stroke="#64748b" stroke-width="2" marker-end="url(#arrow)"/><line x1="500" y1="380" x2="650" y2="358" stroke="#64748b" stroke-width="2" marker-end="url(#arrow)"/><line x1="500" y1="500" x2="650" y2="238" stroke="#64748b" stroke-width="2" marker-end="url(#arrow)"/><line x1="500" y1="500" x2="650" y2="358" stroke="#64748b" stroke-width="2" marker-end="url(#arrow)"/><line x1="500" y1="620" x2="650" y2="118" stroke="#64748b" stroke-width="2" marker-end="url(#arrow)"/><line x1="500" y1="620" x2="650" y2="238" stroke="#64748b" stroke-width="2" marker-end="url(#arrow)"/><line x1="500" y1="620" x2="650" y2="358" stroke="#64748b" stroke-width="2" marker-end="url(#arrow)"/><line x1="500" y1="620" x2="650" y2="478" stroke="#64748b" stroke-width="2" marker-end="url(#arrow)"/><line x1="500" y1="620" x2="650" y2="598" stroke="#64748b" stroke-width="2" marker-end="url(#arrow)"/><line x1="500" y1="740" x2="650" y2="598" stroke="#64748b" stroke-width="2" marker-end="url(#arrow)"/><line x1="500" y1="260" x2="980" y2="260" stroke="#7c3aed" stroke-width="2" marker-end="url(#arrow)"/><line x1="500" y1="380" x2="980" y2="400" stroke="#7c3aed" stroke-width="2" marker-end="url(#arrow)"/></svg>