<svg xmlns="http://www.w3.org/2000/svg" width="1400" height="820" viewBox="0 0 1400 820"><rect x="0" y="0" width="1400" height="820" fill="#ffffff" /><defs><marker id="arrow" markerWidth="10" markerHeight="10" refX="8" refY="3" orient="auto" markerUnits="strokeWidth"><path d="M0,0 L0,6 L9,3 z" fill="#4b5563"/></marker></defs><text x="700.0" y="32" text-anchor="middle" font-family="Arial, sans-serif" font-size="24" font-weight="700" fill="#1f2937">System Architecture</text><circle cx="100" cy="170" r="18" fill="#fff7ed" stroke="#b45309" stroke-width="2"/><line x1="100" y1="188" x2="100" y2="228" stroke="#b45309" stroke-width="2"/><line x1="78" y1="200" x2="122" y2="200" stroke="#b45309" stroke-width="2"/><line x1="100" y1="228" x2="80" y2="258" stroke="#b45309" stroke-width="2"/><line x1="100" y1="228" x2="120" y2="258" stroke="#b45309" stroke-width="2"/><text x="100" y="282" text-anchor="middle" font-family="Arial, sans-serif" font-size="16" fill="#78350f">Patient</text><circle cx="100" cy="360" r="18" fill="#fff7ed" stroke="#b45309" stroke-width="2"/><line x1="100" y1="378" x2="100" y2="418" stroke="#b45309" stroke-width="2"/><line x1="78" y1="390" x2="122" y2="390" stroke="#b45309" stroke-width="2"/><line x1="100" y1="418" x2="80" y2="448" stroke="#b45309" stroke-width="2"/><line x1="100" y1="418" x2="120" y2="448" stroke="#b45309" stroke-width="2"/><text x="100" y="472" text-anchor="middle" font-family="Arial, sans-serif" font-size="16" fill="#78350f">Doctor</text><circle cx="100" cy="550" r="18" fill="#fff7ed" stroke="#b45309" stroke-width="2"/><line x1="100" y1="568" x2="100" y2="608" stroke="#b45309" stroke-width="2"/><line x1="78" y1="580" x2="122" y2="580" stroke="#b45309" stroke-width="2"/><line x1="100" y1="608" x2="80" y2="638" stroke="#b45309" stroke-width="2"/><line x1="100" y1="608" x2="120" y2="638" stroke="#b45309" stroke-width="2"/><text x="100" y="662" text-anchor="middle" font-family="Arial, sans-serif" font-size="16" fill="#78350f">Admin</text><rect x="220" y="300" width="220" height="90" rx="14" ry="14" fill="#e0f2fe" stroke="#0284c7" stroke-width="2"/><text x="330.0" y="350.0" text-anchor="middle" font-family="Arial, sans-serif" font-size="16" fill="#111827">Web Browser UI</text><rect x="500" y="300" width="240" height="90" rx="14" ry="14" fill="#dcfce7" stroke="#16a34a" stroke-width="2"/><text x="620.0" y="340.0" text-anchor="middle" font-family="Arial, sans-serif" font-size="16" fill="#111827">Flask Web</text><text x="620.0" y="360.0" text-anchor="middle" font-family="Arial, sans-serif" font-size="16" fill="#111827">Application</text><rect x="820" y="110" width="200" height="70" rx="14" ry="14" fill="#dbeafe" stroke="#2563eb" stroke-width="2"/><text x="920.0" y="150.0" text-anchor="middle" font-family="Arial, sans-serif" font-size="16" fill="#111827">Authentication</text><rect x="820" y="200" width="200" height="70" rx="14" ry="14" fill="#dbeafe" stroke="#2563eb" stroke-width="2"/><text x="920.0" y="240.0" text-anchor="middle" font-family="Arial, sans-serif" font-size="16" fill="#111827">Prediction</text><rect x="820" y="290" width="200" height="70" rx="14" ry="14" fill="#dbeafe" stroke="#2563eb" stroke-width="2"/><text x="920.0" y="330.0" text-anchor="middle" font-family="Arial, sans-serif" font-size="16" fill="#111827">Patient Module</text><rect x="820" y="380" width="200" height="70" rx="14" ry="14" fill="#dbeafe" stroke="#2563eb" stroke-width="2"/><text x="920.0" y="420.0" text-anchor="middle" font-family="Arial, sans-serif" font-size="16" fill="#111827">Doctor Module</text><rect x="820" y="470" width="200" height="70" rx="14" ry="14" fill="#dbeafe" stroke="#2563eb" stroke-width="2"/><text x="920.0" y="510.0" text-anchor="middle" font-family="Arial, sans-serif" font-size="16" fill="#111827">Admin Module</text><rect x="820" y="560" width="200" height="70" rx="14" ry="14" fill="#dbeafe" stroke="#2563eb" stroke-width="2"/><text x="920.0" y="600.0" text-anchor="middle" font-family="Arial, sans-serif" font-size="16" fill="#111827">Feedback</text><rect x="1080" y="160" width="210" height="80" rx="14" ry="14" fill="#f3e8ff" stroke="#7c3aed" stroke-width="2"/><text x="1185.0" y="205.0" text-anchor="middle" font-family="Arial, sans-serif" font-size="16" fill="#111827">ML Model + Scaler</text><ellipse cx="1185.0" cy="314" rx="105.0" ry="14" fill="#fee2e2" stroke="#dc2626" stroke-width="2"/><rect x="1080" y="314" width="210" height="82" fill="#fee2e2" stroke="#dc2626" stroke-width="2"/><ellipse cx="1185.0" cy="396" rx="105.0" ry="14" fill="#fee2e2" stroke="#dc2626" stroke-width="2"/><text x="1185.0" y="360.0" text-anchor="middle" font-family="Arial, sans-serif" font-size="16" fill="#111827">SQLite Database</text><rect x="1080" y="460" width="210" height="70" rx="14" ry="14" fill="#fef3c7" stroke="#d97706" stroke-width="2"/><text x="1185.0" y="500.0" text-anchor="middle" font-family="Arial, sans-serif" font-size="16" fill="#111827">PDF Generator</text><rect x="1080" y="560" width="210" height="70" rx="14" ry="14" fill="#fef3c7" stroke="#d97706" stroke-width="2"/><text x="1185.0" y="600.0" text-anchor="middle" font-family="Arial, sans-serif" font-size="16" fill="#111827">SMTP Email Service</text><line x1="118" y1="170" x2="220" y2="330" stroke="#0f766e" stroke-width="2" marker-end="url(#arrow)"/><line x1="118" y1="360" x2="220" y2="345" stroke="#0f766e" stroke-width="2" marker-end="url(#arrow)"/><line x1="118" y1="550" x2="220" y2="360" stroke="#0f766e" stroke-width="2" marker-end="url(#arrow)"/><line x1="440" y1="345" x2="500" y2="345" stroke="#2563eb" stroke-width="2" marker-end="url(#arrow)"/><line x1="740" y1="345" x2="820" y2="145" stroke="#4f46e5" stroke-width="2" marker-end="url(#arrow)"/><line x1="740" y1="345" x2="820" y2="235" stroke="#4f46e5" stroke-width="2" marker-end="url(#arrow)"/><line x1="740" y1="345" x2="820" y2="325" stroke="#4f46e5" stroke-width="2" marker-end="url(#arrow)"/><line x1="740" y1="345" x2="820" y2="415" stroke="#4f46e5" stroke-width="2" marker-end="url(#arrow)"/><line x1="740" y1="345" x2="820" y2="505" stroke="#4f46e5" stroke-width="2" marker-end="url(#arrow)"/><line x1="740" y1="345" x2="820" y2="595" stroke="#4f46e5" stroke-width="2" marker-end="url(#arrow)"/><line x1="1020" y1="235" x2="1080" y2="200" stroke="#7c3aed" stroke-width="2" marker-end="url(#arrow)"/><line x1="1020" y1="145" x2="1080" y2="355" stroke="#dc2626" stroke-width="2" marker-end="url(#arrow)"/><line x1="1020" y1="235" x2="1080" y2="355" stroke="#dc2626" stroke-width="2" marker-end="url(#arrow)"/><line x1="1020" y1="325" x2="1080" y2="355" stroke="#dc2626" stroke-width="2" marker-end="url(#arrow)"/><line x1="1020" y1="415" x2="1080" y2="355" stroke="#dc2626" stroke-width="2" marker-end="url(#arrow)"/><line x1="1020" y1="505" x2="1080" y2="355" stroke="#dc2626" stroke-width="2" marker-end="url(#arrow)"/><line x1="1020" y1="595" x2="1080" y2="355" stroke="#dc2626" stroke-width="2" marker-end="url(#arrow)"/><line x1="1020" y1="595" x2="1080" y2="495" stroke="#d97706" stroke-width="2" marker-end="url(#arrow)"/><line x1="1020" y1="595" x2="1080" y2="595" stroke="#d97706" stroke-width="2" marker-end="url(#arrow)"/></svg>