<svg xmlns="http://www.w3.org/2000/svg" width="1500" height="980" viewBox="0 0 1500 980"><rect x="0" y="0" width="1500" height="980" fill="#ffffff" /><defs><marker id="arrow" markerWidth="10" markerHeight="10" refX="8" refY="3" orient="auto" markerUnits="strokeWidth"><path d="M0,0 L0,6 L9,3 z" fill="#4b5563"/></marker></defs><text x="750.0" y="32" text-anchor="middle" font-family="Arial, sans-serif" font-size="24" font-weight="700" fill="#1f2937">UML Use Case Diagram</text><circle cx="100" cy="220" r="18" fill="#fff7ed" stroke="#b45309" stroke-width="2"/><line x1="100" y1="238" x2="100" y2="278" stroke="#b45309" stroke-width="2"/><line x1="78" y1="250" x2="122" y2="250" stroke="#b45309" stroke-width="2"/><line x1="100" y1="278" x2="80" y2="308" stroke="#b45309" stroke-width="2"/><line x1="100" y1="278" x2="120" y2="308" stroke="#b45309" stroke-width="2"/><text x="100" y="332" text-anchor="middle" font-family="Arial, sans-serif" font-size="16" fill="#78350f">Patient</text><circle cx="100" cy="500" r="18" fill="#fff7ed" stroke="#b45309" stroke-width="2"/><line x1="100" y1="518" x2="100" y2="558" stroke="#b45309" stroke-width="2"/><line x1="78" y1="530" x2="122" y2="530" stroke="#b45309" stroke-width="2"/><line x1="100" y1="558" x2="80" y2="588" stroke="#b45309" stroke-width="2"/><line x1="100" y1="558" x2="120" y2="588" stroke="#b45309" stroke-width="2"/><text x="100" y="612" text-anchor="middle" font-family="Arial, sans-serif" font-size="16" fill="#78350f">Doctor</text><circle cx="100" cy="780" r="18" fill="#fff7ed" stroke="#b45309" stroke-width="2"/><line x1="100" y1="798" x2="100" y2="838" stroke="#b45309" stroke-width="2"/><line x1="78" y1="810" x2="122" y2="810" stroke="#b45309" stroke-width="2"/><line x1="100" y1="838" x2="80" y2="868" stroke="#b45309" stroke-width="2"/><line x1="100" y1="838" x2="120" y2="868" stroke="#b45309" stroke-width="2"/><text x="100" y="892" text-anchor="middle" font-family="Arial, sans-serif" font-size="16" fill="#78350f">Admin</text><rect x="250" y="80" width="1150" height="840" rx="20" ry="20" fill="#f8fafc" stroke="#2563eb" stroke-width="3"/><text x="825" y="115" text-anchor="middle" font-family="Arial, sans-serif" font-size="20" font-weight="700" fill="#1e3a8a">CardioGuard System</text><ellipse cx="380" cy="170" rx="110" ry="34" fill="#e0f2fe" stroke="#0284c7" stroke-width="2"/><text x="380" y="175" text-anchor="middle" font-family="Arial, sans-serif" font-size="15" fill="#0c4a6e">Register</text><ellipse cx="650" cy="170" rx="110" ry="34" fill="#e0f2fe" stroke="#0284c7" stroke-width="2"/><text x="650" y="175" text-anchor="middle" font-family="Arial, sans-serif" font-size="15" fill="#0c4a6e">Login</text><ellipse cx="920" cy="170" rx="110" ry="34" fill="#e0f2fe" stroke="#0284c7" stroke-width="2"/><text x="920" y="175" text-anchor="middle" font-family="Arial, sans-serif" font-size="15" fill="#0c4a6e">Update Profile</text><ellipse cx="1180" cy="170" rx="110" ry="34" fill="#e0f2fe" stroke="#0284c7" stroke-width="2"/><text x="1180" y="175" text-anchor="middle" font-family="Arial, sans-serif" font-size="15" fill="#0c4a6e">Predict Heart Disease</text><ellipse cx="380" cy="300" rx="110" ry="34" fill="#e0f2fe" stroke="#0284c7" stroke-width="2"/><text x="380" y="305" text-anchor="middle" font-family="Arial, sans-serif" font-size="15" fill="#0c4a6e">View Prediction History</text><ellipse cx="700" cy="300" rx="110" ry="34" fill="#e0f2fe" stroke="#0284c7" stroke-width="2"/><text x="700" y="305" text-anchor="middle" font-family="Arial, sans-serif" font-size="15" fill="#0c4a6e">Download PDF Report</text><ellipse cx="1040" cy="300" rx="110" ry="34" fill="#e0f2fe" stroke="#0284c7" stroke-width="2"/><text x="1040" y="305" text-anchor="middle" font-family="Arial, sans-serif" font-size="15" fill="#0c4a6e">Email Prediction Report</text><ellipse cx="500" cy="430" rx="110" ry="34" fill="#e0f2fe" stroke="#0284c7" stroke-width="2"/><text x="500" y="435" text-anchor="middle" font-family="Arial, sans-serif" font-size="15" fill="#0c4a6e">Submit Feedback</text><ellipse cx="900" cy="430" rx="110" ry="34" fill="#e0f2fe" stroke="#0284c7" stroke-width="2"/><text x="900" y="435" text-anchor="middle" font-family="Arial, sans-serif" font-size="15" fill="#0c4a6e">Reset Password</text><ellipse cx="500" cy="570" rx="110" ry="34" fill="#e0f2fe" stroke="#0284c7" stroke-width="2"/><text x="500" y="575" text-anchor="middle" font-family="Arial, sans-serif" font-size="15" fill="#0c4a6e">Doctor Login</text><ellipse cx="860" cy="570" rx="110" ry="34" fill="#e0f2fe" stroke="#0284c7" stroke-width="2"/><text x="860" y="575" text-anchor="middle" font-family="Arial, sans-serif" font-size="15" fill="#0c4a6e">View Patient Records</text><ellipse cx="1180" cy="570" rx="110" ry="34" fill="#e0f2fe" stroke="#0284c7" stroke-width="2"/><text x="1180" y="575" text-anchor="middle" font-family="Arial, sans-serif" font-size="15" fill="#0c4a6e">Search Doctors</text><ellipse cx="700" cy="700" rx="110" ry="34" fill="#e0f2fe" stroke="#0284c7" stroke-width="2"/><text x="700" y="705" text-anchor="middle" font-family="Arial, sans-serif" font-size="15" fill="#0c4a6e">Doctor Reset Password</text><ellipse cx="380" cy="820" rx="110" ry="34" fill="#e0f2fe" stroke="#0284c7" stroke-width="2"/><text x="380" y="825" text-anchor="middle" font-family="Arial, sans-serif" font-size="15" fill="#0c4a6e">Admin Login</text><ellipse cx="580" cy="820" rx="110" ry="34" fill="#e0f2fe" stroke="#0284c7" stroke-width="2"/><text x="580" y="825" text-anchor="middle" font-family="Arial, sans-serif" font-size="15" fill="#0c4a6e">Add Doctor</text><ellipse cx="760" cy="820" rx="110" ry="34" fill="#e0f2fe" stroke="#0284c7" stroke-width="2"/><text x="760" y="825" text-anchor="middle" font-family="Arial, sans-serif" font-size="15" fill="#0c4a6e">Update Doctor</text><ellipse cx="940" cy="820" rx="110" ry="34" fill="#e0f2fe" stroke="#0284c7" stroke-width="2"/><text x="940" y="825" text-anchor="middle" font-family="Arial, sans-serif" font-size="15" fill="#0c4a6e">Delete Doctor</text><ellipse cx="1120" cy="820" rx="110" ry="34" fill="#e0f2fe" stroke="#0284c7" stroke-width="2"/><text x="1120" y="825" text-anchor="middle" font-family="Arial, sans-serif" font-size="15" fill="#0c4a6e">View Doctors</text><ellipse cx="1300" cy="820" rx="110" ry="34" fill="#e0f2fe" stroke="#0284c7" stroke-width="2"/><text x="1300" y="825" text-anchor="middle" font-family="Arial, sans-serif" font-size="15" fill="#0c4a6e">View Patients</text><ellipse cx="520" cy="900" rx="110" ry="34" fill="#e0f2fe" stroke="#0284c7" stroke-width="2"/><text x="520" y="905" text-anchor="middle" font-family="Arial, sans-serif" font-size="15" fill="#0c4a6e">Delete Patient</text><ellipse cx="810" cy="900" rx="110" ry="34" fill="#e0f2fe" stroke="#0284c7" stroke-width="2"/><text x="810" y="905" text-anchor="middle" font-family="Arial, sans-serif" font-size="15" fill="#0c4a6e">View Feedback</text><ellipse cx="1080" cy="900" rx="110" ry="34" fill="#e0f2fe" stroke="#0284c7" stroke-width="2"/><text x="1080" y="905" text-anchor="middle" font-family="Arial, sans-serif" font-size="15" fill="#0c4a6e">View Analytics</text><line x1="122" y1="220" x2="270" y2="170" stroke="#6366f1" stroke-width="2" marker-end="url(#arrow)"/><line x1="122" y1="220" x2="540" y2="170" stroke="#6366f1" stroke-width="2" marker-end="url(#arrow)"/><line x1="122" y1="220" x2="810" y2="170" stroke="#6366f1" stroke-width="2" marker-end="url(#arrow)"/><line x1="122" y1="220" x2="1070" y2="170" stroke="#6366f1" stroke-width="2" marker-end="url(#arrow)"/><line x1="122" y1="220" x2="270" y2="300" stroke="#6366f1" stroke-width="2" marker-end="url(#arrow)"/><line x1="122" y1="220" x2="590" y2="300" stroke="#6366f1" stroke-width="2" marker-end="url(#arrow)"/><line x1="122" y1="220" x2="930" y2="300" stroke="#6366f1" stroke-width="2" marker-end="url(#arrow)"/><line x1="122" y1="220" x2="390" y2="430" stroke="#6366f1" stroke-width="2" marker-end="url(#arrow)"/><line x1="122" y1="220" x2="790" y2="430" stroke="#6366f1" stroke-width="2" marker-end="url(#arrow)"/><line x1="122" y1="500" x2="390" y2="570" stroke="#6366f1" stroke-width="2" marker-end="url(#arrow)"/><line x1="122" y1="500" x2="750" y2="570" stroke="#6366f1" stroke-width="2" marker-end="url(#arrow)"/><line x1="122" y1="500" x2="1070" y2="570" stroke="#6366f1" stroke-width="2" marker-end="url(#arrow)"/><line x1="122" y1="500" x2="590" y2="700" stroke="#6366f1" stroke-width="2" marker-end="url(#arrow)"/><line x1="122" y1="780" x2="270" y2="820" stroke="#6366f1" stroke-width="2" marker-end="url(#arrow)"/><line x1="122" y1="780" x2="470" y2="820" stroke="#6366f1" stroke-width="2" marker-end="url(#arrow)"/><line x1="122" y1="780" x2="650" y2="820" stroke="#6366f1" stroke-width="2" marker-end="url(#arrow)"/><line x1="122" y1="780" x2="830" y2="820" stroke="#6366f1" stroke-width="2" marker-end="url(#arrow)"/><line x1="122" y1="780" x2="1010" y2="820" stroke="#6366f1" stroke-width="2" marker-end="url(#arrow)"/><line x1="122" y1="780" x2="1190" y2="820" stroke="#6366f1" stroke-width="2" marker-end="url(#arrow)"/><line x1="122" y1="780" x2="410" y2="900" stroke="#6366f1" stroke-width="2" marker-end="url(#arrow)"/><line x1="122" y1="780" x2="700" y2="900" stroke="#6366f1" stroke-width="2" marker-end="url(#arrow)"/><line x1="122" y1="780" x2="970" y2="900" stroke="#6366f1" stroke-width="2" marker-end="url(#arrow)"/></svg>