<svg xmlns="http://www.w3.org/2000/svg" width="900" height="1180" viewBox="0 0 900 1180"><rect x="0" y="0" width="900" height="1180" fill="#ffffff" /><defs><marker id="arrow" markerWidth="10" markerHeight="10" refX="8" refY="3" orient="auto" markerUnits="strokeWidth"><path d="M0,0 L0,6 L9,3 z" fill="#4b5563"/></marker></defs><text x="450.0" y="32" text-anchor="middle" font-family="Arial, sans-serif" font-size="24" font-weight="700" fill="#1f2937">UML Activity Diagram</text><ellipse cx="450" cy="90" rx="60" ry="28" fill="#fecaca" stroke="#dc2626" stroke-width="2"/><text x="450" y="96" text-anchor="middle" font-family="Arial, sans-serif" font-size="16" fill="#7f1d1d">Start</text><rect x="340" y="150" width="220" height="60" rx="14" ry="14" fill="#dbeafe" stroke="#2563eb" stroke-width="2"/><text x="450.0" y="185.0" text-anchor="middle" font-family="Arial, sans-serif" font-size="16" fill="#111827">Open system</text><polygon points="450.0,250 560,300.0 450.0,350 340,300.0" fill="#fef3c7" stroke="#d97706" stroke-width="2"/><text x="450.0" y="305.0" text-anchor="middle" font-family="Arial, sans-serif" font-size="15" fill="#111827">New user?</text><rect x="340" y="390" width="220" height="60" rx="14" ry="14" fill="#dbeafe" stroke="#2563eb" stroke-width="2"/><text x="450.0" y="425.0" text-anchor="middle" font-family="Arial, sans-serif" font-size="16" fill="#111827">Register account</text><rect x="340" y="500" width="220" height="60" rx="14" ry="14" fill="#dbeafe" stroke="#2563eb" stroke-width="2"/><text x="450.0" y="535.0" text-anchor="middle" font-family="Arial, sans-serif" font-size="16" fill="#111827">Login</text><polygon points="450.0,610 570,665.0 450.0,720 330,665.0" fill="#fef3c7" stroke="#d97706" stroke-width="2"/><text x="450.0" y="670.0" text-anchor="middle" font-family="Arial, sans-serif" font-size="15" fill="#111827">Select role</text><rect x="110" y="760" width="200" height="60" rx="14" ry="14" fill="#dcfce7" stroke="#16a34a" stroke-width="2"/><text x="210.0" y="795.0" text-anchor="middle" font-family="Arial, sans-serif" font-size="16" fill="#111827">Patient dashboard</text><rect x="110" y="860" width="200" height="60" rx="14" ry="14" fill="#dcfce7" stroke="#16a34a" stroke-width="2"/><text x="210.0" y="895.0" text-anchor="middle" font-family="Arial, sans-serif" font-size="16" fill="#111827">Enter health details</text><rect x="110" y="960" width="200" height="60" rx="14" ry="14" fill="#dcfce7" stroke="#16a34a" stroke-width="2"/><text x="210.0" y="995.0" text-anchor="middle" font-family="Arial, sans-serif" font-size="16" fill="#111827">Run prediction</text><rect x="110" y="1060" width="200" height="60" rx="14" ry="14" fill="#dcfce7" stroke="#16a34a" stroke-width="2"/><text x="210.0" y="1095.0" text-anchor="middle" font-family="Arial, sans-serif" font-size="16" fill="#111827">View history / PDF / Email</text><rect x="350" y="760" width="200" height="60" rx="14" ry="14" fill="#e0f2fe" stroke="#0284c7" stroke-width="2"/><text x="450.0" y="795.0" text-anchor="middle" font-family="Arial, sans-serif" font-size="16" fill="#111827">Doctor dashboard</text><rect x="350" y="860" width="200" height="60" rx="14" ry="14" fill="#e0f2fe" stroke="#0284c7" stroke-width="2"/><text x="450.0" y="895.0" text-anchor="middle" font-family="Arial, sans-serif" font-size="16" fill="#111827">View patient records</text><rect x="590" y="760" width="200" height="60" rx="14" ry="14" fill="#ede9fe" stroke="#7c3aed" stroke-width="2"/><text x="690.0" y="795.0" text-anchor="middle" font-family="Arial, sans-serif" font-size="16" fill="#111827">Admin dashboard</text><rect x="590" y="860" width="200" height="60" rx="14" ry="14" fill="#ede9fe" stroke="#7c3aed" stroke-width="2"/><text x="690.0" y="895.0" text-anchor="middle" font-family="Arial, sans-serif" font-size="16" fill="#111827">Manage users and analytics</text><ellipse cx="450" cy="1130" rx="60" ry="28" fill="#fecaca" stroke="#dc2626" stroke-width="2"/><text x="450" y="1136" text-anchor="middle" font-family="Arial, sans-serif" font-size="16" fill="#7f1d1d">End</text><line x1="450" y1="118" x2="450" y2="150" stroke="#334155" stroke-width="2" marker-end="url(#arrow)"/><line x1="450" y1="210" x2="450" y2="250" stroke="#334155" stroke-width="2" marker-end="url(#arrow)"/><line x1="450" y1="350" x2="450" y2="390" stroke="#334155" stroke-width="2" marker-end="url(#arrow)"/><line x1="450" y1="450" x2="450" y2="500" stroke="#334155" stroke-width="2" marker-end="url(#arrow)"/><line x1="450" y1="560" x2="450" y2="610" stroke="#334155" stroke-width="2" marker-end="url(#arrow)"/><line x1="450" y1="350" x2="450" y2="390" stroke="#334155" stroke-width="2" marker-end="url(#arrow)"/><text x="485" y="372" text-anchor="middle" font-family="Arial, sans-serif" font-size="14" fill="#334155">Yes</text><line x1="560" y1="300" x2="560" y2="530" stroke="#334155" stroke-width="2" marker-end="url(#arrow)"/><line x1="560" y1="530" x2="560" y2="665" stroke="#334155" stroke-width="2" marker-end="url(#arrow)"/><text x="590" y="520" text-anchor="middle" font-family="Arial, sans-serif" font-size="14" fill="#334155">No</text><line x1="450" y1="720" x2="210" y2="760" stroke="#16a34a" stroke-width="2" marker-end="url(#arrow)"/><text x="300" y="735" text-anchor="middle" font-family="Arial, sans-serif" font-size="14" fill="#16a34a">Patient</text><line x1="450" y1="720" x2="450" y2="760" stroke="#0284c7" stroke-width="2" marker-end="url(#arrow)"/><text x="495" y="740" text-anchor="middle" font-family="Arial, sans-serif" font-size="14" fill="#0284c7">Doctor</text><line x1="450" y1="720" x2="690" y2="760" stroke="#7c3aed" stroke-width="2" marker-end="url(#arrow)"/><text x="610" y="740" text-anchor="middle" font-family="Arial, sans-serif" font-size="14" fill="#7c3aed">Admin</text><line x1="210" y1="820" x2="210" y2="860" stroke="#16a34a" stroke-width="2" marker-end="url(#arrow)"/><line x1="210" y1="920" x2="210" y2="960" stroke="#16a34a" stroke-width="2" marker-end="url(#arrow)"/><line x1="210" y1="1020" x2="210" y2="1060" stroke="#16a34a" stroke-width="2" marker-end="url(#arrow)"/><line x1="210" y1="1120" x2="450" y2="1130" stroke="#334155" stroke-width="2" marker-end="url(#arrow)"/><line x1="450" y1="820" x2="450" y2="860" stroke="#0284c7" stroke-width="2" marker-end="url(#arrow)"/><line x1="450" y1="920" x2="450" y2="1130" stroke="#334155" stroke-width="2" marker-end="url(#arrow)"/><line x1="690" y1="820" x2="690" y2="860" stroke="#7c3aed" stroke-width="2" marker-end="url(#arrow)"/><line x1="690" y1="920" x2="450" y2="1130" stroke="#334155" stroke-width="2" marker-end="url(#arrow)"/></svg>